<svg xmlns="http://www.w3.org/2000/svg" width="46.271" height="29.039" viewBox="0 0 46.271 29.039">
  <path id="Path_228" data-name="Path 228" d="M50.44,33.143c-.106-1.6-.848-3.519-5.232-2.275-2.263.64-4.313.675-5.232-.213a2.971,2.971,0,0,1-.283-.427c-.354-.675-.177-1.742.672-3.164a2.228,2.228,0,0,1,2.121-1.28c.707,0,1.485.142,2.475.142,3.04-.071,4.207-1.991,4.066-3.733-.035-.533-.742-.355-2.05-.675s-2.369-.142-2.652-2.026a2.742,2.742,0,0,0-2.369-1.955c-1.061-.178-3.323-1.244-5.02.107L35.45,17c-.99-.249-.919.427-1.838.782-.848.284-2.475-.5-2.015.6a2.954,2.954,0,0,0,3.571,1.493c-1.061,5.3-6.116,6.505-10.323,6.327a10.187,10.187,0,0,1-9.758-10.593c.071-1.635-.46-2.1-.99-1.244a4.042,4.042,0,0,0-.424,1.138c-.035.178-.106.355-.141.533a10.879,10.879,0,0,0,3.995,10.1A5.729,5.729,0,0,0,15.793,29.2a6.87,6.87,0,0,0-.071,2.524c.035.213.071.356.071.356.353,1.742-2.864,2.915-4.278,3.164-.106,0-.212.035-.318.035h-.566A3.151,3.151,0,0,1,10,35.205c-.848-.071-1.449.071-2.015,2.168-.778,2.986-3.005,2.311-3.535,3.164-.848,1.351.424,2.346,2.015,2.453a4.011,4.011,0,0,0,2.864-.96c2.758-2.488,1.449-3.626,4.172-3.413.354.035.778.071,1.273.142,3.04.391,5.2,1.031,8.167-2.2a3.15,3.15,0,0,1,.6-.675,1.331,1.331,0,0,1,.53-.32c.071-.071.46-.036.53-.036,1.167.284,3.747,1.706,6.682,1.209a8.442,8.442,0,0,0,3.076-1.955s.46-.427.778-.035c.389.427.778,1.173,1.237,1.671,1.061,1.138,1.061.675,3.288-.249.212-.107.46-.178.743-.284,5.8-2.133,5.656-2.808,6.823-.5.212.427.955.462,1.662.178A2.489,2.489,0,0,0,50.44,33.143Z" transform="translate(-4.174 -13.954)" fill="#271c47"/>
</svg>
